<svg width="526" height="140" viewBox="0 0 526 140" fill="none" xmlns="http://www.w3.org/2000/svg">
<g clip-path="url(#clip0_602_839)">
<path d="M40.286 139.539C18.0371 139.539 0 123.92 0 104.654C0 85.4125 17.992 69.8093 40.2026 69.7703H0V34.886C0 15.7341 17.8265 0.188758 39.8949 0.00556728V0.0016948H91.3312C113.557 -0.0457996 131.576 15.5946 131.618 34.9732V95.961H91.3312V34.886H40.286L40.286 139.539Z" fill="white"/>
<path d="M91.3314 139.539C69.0828 139.539 40.2861 123.92 40.2861 104.654H91.3314L121.184 128.079C113.813 135.118 103.168 139.539 91.3314 139.539Z" fill="white"/>
<path d="M142.27 135.806L98.3394 102.31H142.27V135.806Z" fill="white"/>
<path fill-rule="evenodd" clip-rule="evenodd" d="M215.78 24.8753C192.666 24.8753 173.54 43.3681 173.54 68.4463C173.54 93.383 192.168 109.923 215.78 109.923C221.124 109.923 227.024 108.941 231.374 107.26L238.705 121.271H251.257V120.99L240.569 101.516C249.765 93.6708 256.968 83.2963 256.968 68.4463C256.968 43.3681 239.019 24.8753 215.78 24.8753ZM215.78 36.6436C232.806 36.6436 245.535 50.5135 245.535 68.3059C245.535 87.0793 233.054 98.2939 215.78 98.2939C198.507 98.2939 184.974 87.0793 184.974 68.3059C184.974 50.5135 198.755 36.6436 215.78 36.6436Z" fill="white"/>
<path d="M309.486 89.1938H309.629V107.34H322.158V40.0882H309.629V79.9778C309.629 91.2109 302.717 97.5465 291.198 97.5465C279.1 97.5465 275.068 89.1938 275.068 79.9778V40.0882H262.539V83.1455C262.539 97.5465 268.588 109.068 286.012 109.068C297.821 109.068 306.605 102.875 309.486 89.1938Z" fill="white"/>
<path fill-rule="evenodd" clip-rule="evenodd" d="M374.222 90.2026H374.367V107.34H386.896V65.4324C386.896 48.1511 378.83 38.6467 360.109 38.6467C342.397 38.6467 333.18 47.4314 330.876 63.1283L342.829 64.8562C344.701 53.7677 350.03 49.3039 359.677 49.3039C370.335 49.3039 374.367 55.064 374.367 65.5763V69.1768H352.621C336.348 69.1768 328.861 77.9615 328.861 89.7702C328.861 102.443 337.356 108.78 350.462 108.78C362.124 108.78 371.199 102.586 374.222 90.2026ZM374.367 79.1133V82.2822C374.367 91.4985 366.734 98.2656 354.349 98.2656C344.557 98.2656 341.244 93.3707 341.244 88.1857C341.244 82.2821 345.852 79.1133 354.349 79.1133H374.367Z" fill="white"/>
<path d="M393.754 107.34V40.088H406.283V60.8245H406.571C409.307 45.1276 415.644 40.088 426.445 40.088H430.621V53.9116H424.573C411.901 53.9116 406.283 58.8085 406.283 71.7692V107.34H393.754Z" fill="white"/>
<path d="M437.299 54.084L447.237 50.8474V87.2819C447.237 99.811 453.429 109.027 467.541 109.027C473.734 109.027 477.334 108.163 481.942 106.723L480.359 95.2023C476.758 96.2105 473.734 96.9302 470.134 96.9302C462.645 96.9302 459.766 93.0423 459.766 85.5535V50.8474L481.223 53.9799V40.0465H459.766V21.4704H447.237V40.0465H437.299V54.084Z" fill="white"/>
<path d="M488.71 107.34V40.088H501.239V60.8245H501.526C504.262 45.1276 510.599 40.088 521.399 40.088H525.576V53.9116H519.527C506.856 53.9116 501.239 58.8085 501.239 71.7692V107.34H488.71Z" fill="white"/>
</g>
<defs>
<clipPath id="clip0_602_839">
<rect width="525.571" height="139.539" fill="white"/>
</clipPath>
</defs>
</svg>
